HIERARCHY
ROOT Hips
{
	OFFSET 0.000000 0.000000 0.000000
	CHANNELS 6 Xposition Yposition Zposition Xrotation Yrotation Zrotation
	JOINT LeftUpLeg_virtual
	{
		OFFSET 0.000000 0.000000 0.000000
		CHANNELS 3 Xrotation Yrotation Zrotation
		JOINT LeftUpLeg
		{
			OFFSET 13.026900 -6.336304 -1.092800
			CHANNELS 3 Xrotation Yrotation Zrotation
			JOINT LeftLeg
			{
				OFFSET 0.524474 -46.096886 9.782700
				CHANNELS 3 Xrotation Yrotation Zrotation
				JOINT LeftFoot
				{
					OFFSET -0.524474 -53.427422 -12.948200
					CHANNELS 3 Xrotation Yrotation Zrotation
					JOINT LeftToeBase
					{
						OFFSET 0.192200 -14.009700 16.364100
						CHANNELS 3 Xrotation Yrotation Zrotation
						JOINT LeftToe_End
						{
							OFFSET -1.784700 -0.561700 9.474800
							CHANNELS 3 Xrotation Yrotation Zrotation
							End Site
							{
								OFFSET 0 0 0
							}
						}
					}
				}
			}
		}
	}
	JOINT RightUpLeg_virtual
	{
		OFFSET 0.000000 0.000000 0.000000
		CHANNELS 3 Xrotation Yrotation Zrotation
		JOINT RightUpLeg
		{
			OFFSET -12.883000 -6.336304 -1.092800
			CHANNELS 3 Xrotation Yrotation Zrotation
			JOINT RightLeg
			{
				OFFSET -0.524587 -46.096825 9.782800
				CHANNELS 3 Xrotation Yrotation Zrotation
				JOINT RightFoot
				{
					OFFSET 0.524587 -53.427383 -12.948300
					CHANNELS 3 Xrotation Yrotation Zrotation
					JOINT RightToeBase
					{
						OFFSET -0.192200 -14.009700 16.364100
						CHANNELS 3 Xrotation Yrotation Zrotation
						JOINT RightToe_End
						{
							OFFSET 1.784700 -0.561700 9.474800
							CHANNELS 3 Xrotation Yrotation Zrotation
							End Site
							{
								OFFSET 0 0 0
							}
						}
					}
				}
			}
		}
	}
	JOINT Spine_virtual
	{
		OFFSET 0.000000 0.000000 0.000000
		CHANNELS 3 Xrotation Yrotation Zrotation
		JOINT Spine
		{
			OFFSET 0.072000 7.257294 -0.789700
			CHANNELS 3 Xrotation Yrotation Zrotation
			JOINT Spine1
			{
				OFFSET 0.000000 12.508769 -0.658067
				CHANNELS 3 Xrotation Yrotation Zrotation
				JOINT Spine1_split
				{
					OFFSET 0.000000 12.508769 -0.658067
					CHANNELS 3 Xrotation Yrotation Zrotation
					JOINT Spine2
					{
						OFFSET 0.000000 12.508769 -0.658067
						CHANNELS 3 Xrotation Yrotation Zrotation
						JOINT Neck_virtual
						{
							OFFSET 0.000000 0.000000 0.000000
							CHANNELS 3 Xrotation Yrotation Zrotation
							JOINT Neck
							{
								OFFSET 0.000000 14.033295 7.520400
								CHANNELS 3 Xrotation Yrotation Zrotation
								JOINT Head
								{
									OFFSET 0.000000 8.198502 5.703100
									CHANNELS 3 Xrotation Yrotation Zrotation
									JOINT HeadTop_End
									{
										OFFSET 0.000000 17.760803 13.332701
										CHANNELS 3 Xrotation Yrotation Zrotation
										End Site
										{
											OFFSET 0 0 0
										}
									}
								}
							}
						}
						JOINT LeftShoulder_virtual
						{
							OFFSET 0.000000 0.000000 0.000000
							CHANNELS 3 Xrotation Yrotation Zrotation
							JOINT LeftShoulder
							{
								OFFSET 6.292450 5.785301 -0.669000
								CHANNELS 3 Xrotation Yrotation Zrotation
								JOINT LeftShoulder_split
								{
									OFFSET 6.292450 5.785301 -0.669000
									CHANNELS 3 Xrotation Yrotation Zrotation
									JOINT LeftArm
									{
										OFFSET 13.907140 -6.093903 1.965100
										CHANNELS 3 Xrotation Yrotation Zrotation
										JOINT LeftForeArm
										{
											OFFSET 34.140198 0.000000 0.000000
											CHANNELS 3 Xrotation Yrotation Zrotation
											JOINT LeftHand
											{
												OFFSET 40.960209 0.000000 0.000000
												CHANNELS 3 Xrotation Yrotation Zrotation
												End Site
												{
													OFFSET 0 0 0
												}
											}
										}
									}
								}
							}
						}
						JOINT RightShoulder_virtual
						{
							OFFSET 0.000000 0.000000 0.000000
							CHANNELS 3 Xrotation Yrotation Zrotation
							JOINT RightShoulder
							{
								OFFSET -6.292450 5.785301 -0.669000
								CHANNELS 3 Xrotation Yrotation Zrotation
								JOINT RightShoulder_split
								{
									OFFSET -6.292450 5.785301 -0.669000
									CHANNELS 3 Xrotation Yrotation Zrotation
									JOINT RightArm
									{
										OFFSET -13.907140 -6.093903 1.965100
										CHANNELS 3 Xrotation Yrotation Zrotation
										JOINT RightForeArm
										{
											OFFSET -34.140198 0.000000 0.000000
											CHANNELS 3 Xrotation Yrotation Zrotation
											JOINT RightHand
											{
												OFFSET -40.960209 0.000000 0.000000
												CHANNELS 3 Xrotation Yrotation Zrotation
												End Site
												{
													OFFSET 0 0 0
												}
											}
										}
									}
								}
							}
						}
					}
				}
			}
		}
	}
}
MOTION
Frames: 5
Frame Time: 0.03333333
-0.756208 154.006897 20.853775 0.000000 0.000000 0.000000 -88.457575 -7.748439 -0.827081 -9.980325 19.938159 14.289189 4.898737 0.357493 3.850177 11.119121 27.716971 -17.666079 -4.459356 -0.023599 0.760009 0.000000 0.000000 0.000000 -90.443562 -5.247140 0.324455 -15.912906 -18.416726 -16.813561 16.957871 -2.703034 -4.551130 18.024410 -31.582351 25.667404 -10.523235 0.830639 -1.875389 0.000000 0.000000 0.000000 -87.581467 -7.702620 -2.230349 1.595847 -0.423272 -0.418115 -1.211364 0.323852 -0.251365 0.612114 0.812914 -0.346573 0.000000 0.000000 0.000000 -1.100916 0.525403 -0.329610 -5.091661 3.979673 -8.412854 3.737896 8.010457 -11.195211 0.000000 0.000000 0.000000 -0.247438 0.511752 -0.089791 0.349875 -6.119659 -0.569575 -0.130501 1.436771 -2.966873 45.000742 -42.006688 -31.543579 4.638718 -86.263670 4.017380 0.000000 0.000000 0.000000 -0.171814 0.729568 -0.653566 0.340799 0.314265 2.300114 7.705395 7.673520 -0.803855 -4.542655 1.058135 81.332206 -179.379236 54.436888 -179.965376 0.000000 0.000000 0.000000 
-0.725645 154.011246 20.858532 0.000000 0.000000 0.000000 -88.462322 -7.737442 -0.812774 -9.983588 19.915018 14.288934 4.886699 0.341003 3.837257 11.119394 27.706314 -17.658127 -4.457070 -0.024830 0.761225 0.000000 0.000000 0.000000 -90.435796 -5.242933 0.333426 -15.922508 -18.410268 -16.826241 16.946263 -2.700947 -4.555149 18.033777 -31.579530 25.670441 -10.534471 0.826453 -1.872332 0.000000 0.000000 0.000000 -87.576426 -7.689798 -2.231091 1.601278 -0.419360 -0.401710 -1.207978 0.325969 -0.249197 0.632739 0.798249 -0.331340 0.000000 0.000000 0.000000 -1.104996 0.530990 -0.328197 -5.036154 4.039420 -8.454965 3.818219 8.115648 -11.192395 0.000000 0.000000 0.000000 -0.241023 0.512697 -0.100762 0.349460 -6.127618 -0.578804 -0.112025 1.492435 -2.929724 44.978421 -42.020724 -31.557929 4.665498 -86.263404 4.045001 0.000000 0.000000 0.000000 -0.158507 0.742862 -0.643327 0.351902 0.314732 2.308395 7.700508 7.658386 -0.840621 -4.507323 1.108519 81.281532 -179.406106 54.448875 -179.931143 0.000000 0.000000 0.000000 
-0.695292 154.017120 20.861073 0.000000 0.000000 0.000000 -88.463039 -7.728900 -0.793351 -9.979829 19.890851 14.282099 4.865859 0.316359 3.824599 11.118938 27.692949 -17.642464 -4.448043 -0.027313 0.759552 0.000000 0.000000 0.000000 -90.425243 -5.242600 0.345284 -15.940973 -18.418341 -16.848671 16.943483 -2.696708 -4.562762 18.024500 -31.584045 25.662187 -10.557210 0.823409 -1.867820 0.000000 0.000000 0.000000 -87.570695 -7.689661 -2.238654 1.609836 -0.420560 -0.374312 -1.207469 0.327687 -0.245021 0.644072 0.780900 -0.302815 0.000000 0.000000 0.000000 -1.111448 0.535642 -0.326338 -5.046551 4.079224 -8.443704 4.183714 8.237357 -11.376822 0.000000 0.000000 0.000000 -0.235339 0.509636 -0.108729 0.344226 -6.122504 -0.601299 -0.079780 1.552339 -2.868185 44.932089 -42.023832 -31.615911 4.552998 -86.262311 3.936568 0.000000 0.000000 0.000000 -0.146955 0.753332 -0.632734 0.364979 0.308091 2.344909 7.682302 7.647510 -0.871424 -4.497995 1.218943 81.194195 -179.427430 54.498984 -179.891145 0.000000 0.000000 0.000000 
-0.666938 154.023254 20.856861 0.000000 0.000000 0.000000 -88.459569 -7.724823 -0.771951 -9.972393 19.866030 14.271740 4.842764 0.282583 3.814078 11.115811 27.676946 -17.624289 -4.434013 -0.030666 0.755150 0.000000 0.000000 0.000000 -90.412252 -5.243228 0.361022 -15.970353 -18.440927 -16.878422 16.950503 -2.687576 -4.572599 18.003810 -31.590540 25.649368 -10.592624 0.821474 -1.861744 0.000000 0.000000 0.000000 -87.566406 -7.700881 -2.253489 1.618886 -0.427244 -0.340417 -1.210942 0.328783 -0.239308 0.643428 0.761551 -0.275349 0.000000 0.000000 0.000000 -1.121762 0.539949 -0.322426 -5.119508 4.099673 -8.394116 4.820413 8.363838 -11.740188 0.000000 0.000000 0.000000 -0.229629 0.502712 -0.113645 0.336564 -6.109821 -0.642535 -0.038673 1.605450 -2.782954 44.872413 -42.017162 -31.695121 4.298201 -86.241042 3.690943 0.000000 0.000000 0.000000 -0.137501 0.759760 -0.623538 0.379827 0.286920 2.398757 7.657399 7.651222 -0.898978 -4.506890 1.369812 81.084987 -179.432594 54.546895 -179.859221 0.000000 0.000000 0.000000 
-0.642939 154.028397 20.845367 0.000000 0.000000 0.000000 -88.457111 -7.728546 -0.753582 -9.964496 19.843262 14.260936 4.821299 0.238441 3.806267 11.111272 27.655810 -17.610745 -4.418761 -0.034478 0.748694 0.000000 0.000000 0.000000 -90.395785 -5.239207 0.384855 -16.004393 -18.478524 -16.911330 16.961397 -2.669275 -4.584563 17.977029 -31.594601 25.635872 -10.648757 0.820958 -1.854863 0.000000 0.000000 0.000000 -87.567212 -7.724068 -2.276185 1.625801 -0.439611 -0.305164 -1.216637 0.329458 -0.233302 0.646790 0.747573 -0.253507 0.000000 0.000000 0.000000 -1.133963 0.543448 -0.316518 -5.245002 4.107473 -8.326836 5.676086 8.485020 -12.261189 0.000000 0.000000 0.000000 -0.222193 0.493387 -0.116613 0.327281 -6.087911 -0.708756 -0.005571 1.640638 -2.683146 44.807933 -42.006848 -31.770779 3.929108 -86.191004 3.336716 0.000000 0.000000 0.000000 -0.129093 0.762970 -0.617114 0.393712 0.245940 2.455904 7.632071 7.669975 -0.919602 -4.526026 1.533488 80.976838 -179.416898 54.562768 -179.844454 0.000000 0.000000 0.000000 
